<?xml version="1.0" encoding="UTF-8"?>
<!DOCTYPE svg PUBLIC "-//W3C//DTD SVG 1.1//EN" "http://www.w3.org/Graphics/SVG/1.1/DTD/svg11.dtd">
<!-- Creator: CorelDRAW -->
<svg xmlns="http://www.w3.org/2000/svg" xml:space="preserve" width="210mm" height="210mm" version="1.1" style="shape-rendering:geometricPrecision; text-rendering:geometricPrecision; image-rendering:optimizeQuality; fill-rule:evenodd; clip-rule:evenodd"
viewBox="0 0 21000 21000"
 xmlns:xlink="http://www.w3.org/1999/xlink"
 xmlns:xodm="http://www.corel.com/coreldraw/odm/2003">
 <defs>
  <style type="text/css">
   <![CDATA[
    .fil0 {fill:#7a0099}
   ]]>
  </style>
 </defs>
 <g id="Layer_x0020_1">
  <metadata id="CorelCorpID_0Corel-Layer"/>
  <path class="fil0" d="M10492.88 61.15l-6919.58 3286.85 6919.58 3286.86 6919.58 -3286.86 -6919.58 -3286.85zm-10116.37 14041.14l1844.84 -1169.19 8271.53 3929.07 6417.44 -3048.34 0 2035.18 3699.79 -5838.08 -3689.68 -2338.3 3689.68 -1752.64 0 -2045.45 -2153.08 1022.72 -7964.15 3783.05 -7964.15 -3783.05 -2153.08 -1022.72 0 2045.45 10117.23 4805.78 6417.44 -3048.34 -0.02 2045.49 -6417.42 3048.33 -8262.67 -3924.85 -1854.56 -2926.38 -0.03 4091.39 0.03 4091.41 0 2044.51 10117.23 4805.78 10117.23 -4805.78 0 -2045.45 -2153.08 1022.72 -7964.15 3783.05 -7964.15 -3783.05 -2152.22 -1022.31z"/>
 </g>
</svg>
