<?xml version="1.0" encoding="utf-8"?>
<svg viewBox="1085.965 6581.511 27527.005 7851.262" style="shape-rendering:geometricPrecision; text-rendering:geometricPrecision; image-rendering:optimizeQuality; fill-rule:evenodd; clip-rule:evenodd" xmlns="http://www.w3.org/2000/svg">
  <defs>
    <style type="text/css">
   
    .fil0 {fill:#a300cc}
    .fil1 {fill:#a300cc;fill-rule:nonzero}
   
  </style>
  </defs>
  <g id="Layer_x0020_1">
    <g id="_2791365382112">
      <path class="fil0" d="M4888.04 6581.51l-2600.39 1235.21 2600.39 1235.2 2600.39 -1235.2 -2600.39 -1235.21zm-3801.74 5276.69l693.29 -439.39 3108.45 1476.55 2411.69 -1145.57 0 764.83 1390.38 -2193.96 -1386.58 -878.74 1386.58 -658.64 0 -768.69 -809.13 384.34 -2992.94 1421.68 -2992.94 -1421.68 -809.13 -384.34 0 768.69 3802.07 1806.01 2411.69 -1145.56 -0.01 768.69 -2411.68 1145.57 -3105.12 -1474.97 -696.95 -1099.73 -0.01 1537.55 0.01 1537.56 0 768.33 3802.07 1806.02 3802.07 -1806.02 0 -768.69 -809.13 384.34 -2992.94 1421.68 -2992.94 -1421.68 -808.8 -384.18z"/>
      <path class="fil1" d="M9820.11 10595.4l0 -2871.03 341.31 0 0 2871.03 -341.31 0zm1003.18 0l0 -1794.89 301.16 0 0 277.06c76.96,-115.11 169.99,-200.77 278.4,-256.99 108.42,-56.22 234.24,-84.32 376.11,-84.32 212.15,0 377.46,56.21 495.91,168.65 119.12,112.43 178.69,269.03 178.69,469.13l0 1221.36 -313.21 0 0 -1056.73c0,-182.03 -38.14,-316.55 -114.44,-404.89 -76.96,-88.33 -194.74,-132.5 -354.02,-132.5 -91.69,0 -175.34,16.73 -250.3,50.19 -74.95,33.46 -137.19,80.31 -187.39,141.88 -37.47,46.84 -64.91,101.05 -80.97,160.61 -16.73,60.23 -24.76,164.64 -24.76,313.88l0 927.56 -305.18 0zm3314.74 -1593.46c186.72,79.64 327.92,185.38 422.29,317.23 95.03,131.83 142.55,288.43 142.55,468.46 0,263.68 -84.33,476.5 -252.31,637.79 -167.98,161.28 -390.16,242.26 -667.9,242.26 -226.2,0 -415.6,-57.56 -568.85,-173.33 -152.59,-115.78 -255.65,-279.75 -309.86,-492.57l309.86 -153.25c42.16,174 111.09,305.84 207.46,395.52 95.71,89.68 216.17,134.52 361.39,134.52 171.33,0 309.86,-49.53 416.27,-147.91 105.74,-99.04 158.61,-227.53 158.61,-385.48 0,-128.49 -36.81,-239.58 -111.09,-334.61 -73.62,-95.04 -184.71,-174.68 -333.96,-240.26l-349.34 -149.24c-190.73,-79.64 -333.28,-182.03 -426.3,-307.85 -93.7,-125.15 -140.54,-275.73 -140.54,-451.06 0,-204.12 75.62,-372.77 227.54,-505.95 151.91,-133.18 345.32,-200.1 580.9,-200.1 171.99,0 321.9,36.81 447.72,109.75 126.48,73.62 224.86,181.37 295.13,324.59l-282.42 180.02c-63.58,-111.09 -135.85,-193.41 -215.49,-247.62 -79.64,-54.21 -169.99,-81.64 -270.37,-81.64 -128.5,0 -233.57,39.48 -315.22,117.78 -81.64,78.3 -122.47,178.01 -122.47,299.82 0,101.72 31.46,190.06 94.37,264.35 62.23,74.95 159.94,140.54 291.78,198.09l410.25 180.69zm1035.31 51.54l-329.27 0 0 -252.97 329.27 0 0 -722.78 313.2 0 0 722.78 329.27 0 0 252.97 -329.27 0 0 1541.92 -313.2 0 0 -1541.92zm2364.42 662.54c0,-202.78 -55.55,-366.07 -165.98,-489.21 -110.42,-123.81 -254.3,-185.38 -432.32,-185.38 -184.04,0 -327.93,56.88 -430.99,170.66 -103.73,113.77 -155.26,272.38 -155.26,476.49 0,216.84 52.2,384.14 155.93,501.26 103.73,117.79 251.63,176.68 442.36,176.68 182.7,0 326.59,-56.88 430.33,-171.32 103.72,-114.44 155.93,-274.39 155.93,-479.18zm297.14 -915.51l0 1794.89 -297.14 0 0 -325.25c-71.61,130.5 -163.97,230.22 -275.73,298.48 -111.76,68.93 -236.91,103.06 -375.44,103.06 -256.99,0 -465.12,-88.33 -622.39,-265.68 -157.27,-177.35 -236.25,-411.59 -236.25,-703.37 0,-295.14 76.3,-530.04 229.56,-704.71 152.58,-174.67 357.37,-261.67 613.68,-261.67 149.92,0 280.42,33.46 390.84,101.05 110.42,67.6 200.1,168.65 267.69,301.83l0 -338.63 305.18 0zm1990.98 1369.26l0 357.37c-80.98,48.18 -172,84.32 -273.72,108.41 -101.05,24.1 -210.81,36.14 -328.59,36.14 -277.07,0 -499.93,-87.67 -669.24,-263.68 -169.32,-176.01 -254.31,-406.89 -254.31,-693.33 0,-287.77 87.67,-522.67 263.01,-704.7 175.34,-182.7 399.53,-273.72 672.58,-273.72 99.05,0 196.09,10.71 291.12,31.45 95.03,20.75 184.04,51.53 267.69,92.36l0 329.93c-78.3,-50.86 -159.27,-89.68 -242.93,-116.45 -83.65,-26.77 -168.65,-40.15 -254.98,-40.15 -201.44,0 -363.4,62.91 -484.53,189.39 -121.8,125.82 -182.7,293.8 -182.7,502.6 0,184.71 60.9,338.63 183.37,463.11 122.47,123.81 275.73,186.05 459.77,186.05 93.02,0 184.04,-16.73 273.05,-49.52 89.01,-32.79 182.03,-84.32 280.41,-155.26zm430.32 425.63l0 -3039.68 309.18 0 0 2058.58 863.32 -813.79 409.57 0 -894.77 821.82 975.08 973.07 -428.98 0 -924.22 -947.64 0 947.64 -309.18 0zm3409.77 -244.94c156.6,0 306.5,-29.45 447.71,-89.01 141.88,-59.56 269.71,-146.56 383.48,-260.33 112.43,-112.44 198.09,-239.59 256.99,-382.14 58.89,-142.55 88.33,-293.79 88.33,-453.07 0,-160.62 -29.44,-313.87 -89.01,-459.1 -59.56,-145.22 -145.22,-273.05 -256.31,-384.14 -112.43,-112.43 -239.59,-198.1 -381.47,-256.99 -141.21,-58.89 -291.78,-88.34 -449.72,-88.34 -159.29,0 -310.53,29.45 -453.08,88.34 -142.55,58.89 -268.36,144.56 -378.12,256.99 -112.43,113.77 -198.09,242.26 -256.99,386.15 -58.89,143.88 -88.34,296.47 -88.34,457.09 0,159.28 28.78,309.86 87,451.06 58.23,141.21 144.56,269.04 258.33,384.15 115.11,115.11 242.93,202.11 382.8,261 140.54,58.89 290.45,88.34 448.4,88.34zm1533.89 -1184.55c0,205.45 -38.15,398.86 -113.77,580.23 -75.63,182.03 -186.05,343.32 -331.28,484.52 -145.22,141.22 -312.53,249.63 -501.25,326.59 -189.4,76.3 -384.82,114.44 -587.59,114.44 -202.78,0 -397.53,-38.14 -585.59,-114.44 -187.39,-76.96 -354.02,-185.37 -499.25,-326.59 -146.56,-142.54 -257.65,-304.5 -334.62,-486.53 -76.29,-181.36 -114.44,-374.11 -114.44,-578.22 0,-205.46 38.15,-398.87 114.44,-581.57 76.97,-182.03 188.06,-344.66 334.62,-487.2 143.89,-139.87 309.86,-247.62 498.58,-323.25 188.06,-75.62 383.48,-113.77 586.26,-113.77 204.11,0 400.2,38.15 589.59,113.77 188.73,75.63 355.37,183.38 499.25,323.25 145.23,141.2 255.65,303.16 331.28,485.19 75.62,182.71 113.77,376.78 113.77,583.58zm815.8 -365.4l0 883.39c0,257.65 38.15,437.68 114.44,540.74 76.96,102.39 205.45,153.93 387.49,153.93 181.36,0 309.85,-50.86 385.48,-151.92 74.95,-101.72 112.43,-282.42 112.43,-542.75l0 -883.39 313.2 0 0 1048.02c0,270.37 -68.93,475.16 -207.46,614.36 -138.53,139.2 -342.65,208.8 -611.68,208.8 -266.36,0 -469.14,-69.6 -607.67,-209.47 -138.54,-139.87 -207.47,-344.66 -207.47,-613.69l0 -1048.02 321.24 0zm1954.84 252.97l-329.26 0 0 -252.97 329.26 0 0 -722.78 313.21 0 0 722.78 329.26 0 0 252.97 -329.26 0 0 1541.92 -313.21 0 0 -1541.92z"/>
      <path class="fil0" d="M27994.78 11385.94c341.41,0 618.19,276.77 618.19,618.19 0,341.42 -276.78,618.19 -618.19,618.19 -286.28,0 -527.07,-194.62 -597.39,-458.75l-8797.98 0 0 -318.88 8797.98 0c70.32,-264.13 311.11,-458.75 597.39,-458.75zm0 356.17c144.71,0 262.02,117.31 262.02,262.02 0,144.71 -117.31,262.02 -262.02,262.02 -144.72,0 -262.03,-117.31 -262.03,-262.02 0,-144.71 117.31,-262.02 262.03,-262.02z"/>
      <path class="fil1" d="M10257.13 12385.38l-133.43 0 0 -943.59 -303.41 0 0 -115.97 740.26 0 0 115.97 -303.42 0 0 943.59zm855.16 -231.93l112.79 23.3c-20.65,66.72 -61.16,121.79 -121,165.47 -60.1,43.69 -130.79,65.4 -212.07,65.4 -107.22,0 -193.8,-37.6 -260.25,-113.05 -66.19,-75.46 -99.29,-174.21 -99.29,-296.53 0,-124.7 34.42,-225.84 103.26,-302.62 68.84,-77.04 155.15,-115.43 259.2,-115.43 102.19,0 184.8,35.48 247.01,106.7 62.22,70.95 94.26,177.38 95.85,319.03l-570.29 0c0,118.35 24.89,198.3 74.66,239.87 50.04,41.3 102.73,61.95 158.33,61.95 100.07,0 170.76,-51.36 211.8,-154.09zm-7.94 -238.28c-1.06,-44.21 -8.21,-83.4 -21.71,-117.55 -13.5,-34.42 -36.54,-63.54 -68.57,-87.63 -32.3,-24.1 -70.96,-36.28 -115.97,-36.28 -60.89,0 -112.25,21.71 -154.61,65.4 -42.37,43.68 -65.93,102.2 -71.22,176.06l432.08 0zm780.77 195.39l109.61 19.33c-15.62,86.84 -50.04,154.88 -103.25,204.13 -53.49,48.98 -119.94,73.6 -199.63,73.6 -108.29,0 -190.89,-39.98 -247.55,-119.67 -56.66,-79.69 -84.99,-177.12 -84.99,-292.29 0,-119.14 29.92,-218.16 89.76,-297.06 59.83,-79.16 141.11,-118.61 244.37,-118.61 85.25,0 153.82,25.42 205.45,76.51 51.36,51.1 83.4,117.03 95.84,198.04l-109.61 20.92c-20.65,-130.26 -83.13,-195.39 -187.71,-195.39 -67.25,0 -118.88,28.59 -155.15,86.04 -36.27,57.46 -54.27,131.59 -54.27,222.93 0,100.87 18,178.97 54.01,234.84 35.74,55.86 86.31,83.66 151.44,83.66 100.87,0 164.68,-65.66 191.68,-196.98zm889.31 274.82l-120.73 0 0 -476.3c0,-55.86 -3.44,-97.69 -10.59,-125.76 -6.88,-27.8 -23.56,-52.15 -49.77,-72.54 -25.95,-20.39 -56.39,-30.71 -90.55,-30.71 -62.74,0 -115.17,25.68 -157.53,76.78 -42.09,51.1 -63.27,119.67 -63.27,205.45l0 423.08 -120.73 0 0 -1059.56 120.73 0 0 419.38c55.33,-110.14 134.49,-165.21 237.22,-165.21 46.07,0 87.1,9 123.11,27.27 35.74,18 63.28,41.83 82.6,71.22 19.07,29.65 32.04,58.51 38.92,87.37 7.15,28.59 10.59,76.78 10.59,144.03l0 475.5zm860.99 0l-114.37 0 0 -503.57c0,-72.28 -15.89,-123.37 -47.4,-152.76 -31.5,-29.39 -69.63,-44.22 -114.63,-44.22 -61.96,0 -113.85,24.89 -155.95,74.67 -42.09,49.5 -63.27,115.16 -63.27,196.44l0 429.44 -120.73 0 0 -783.15 112.78 0 0 144.56c63.55,-111.2 145.88,-166.8 247.02,-166.8 58.51,0 108.29,15.09 149.32,45.27 41.04,30.45 69.11,64.34 84.46,102.2 15.09,37.6 22.77,105.9 22.77,204.66l0 453.26zm524.75 22.24c-107.49,0 -191.42,-39.98 -251.78,-119.67 -60.1,-79.69 -90.29,-178.71 -90.29,-296.79 0,-124.97 33.89,-224.78 101.67,-299.18 67.78,-74.66 151.97,-111.99 252.84,-111.99 108.29,0 193.28,39.18 255.76,117.82 62.22,78.36 93.46,176.32 93.46,294.14 0,122.05 -33.63,222.13 -100.87,299.44 -67.25,77.58 -154.09,116.23 -260.79,116.23zm9.53 -100.08c61.95,0 113.85,-25.68 155.94,-77.04 41.83,-51.37 62.75,-131.32 62.75,-239.87 0,-108.82 -21.97,-187.98 -65.92,-236.96 -43.95,-48.98 -95.58,-73.6 -154.36,-73.6 -60.63,0 -111.72,24.89 -153.82,74.39 -41.83,49.51 -62.75,128.15 -62.75,235.37 0,113.85 20.92,195.13 62.75,244.11 42.1,48.98 93.72,73.6 155.41,73.6zm656.34 77.84l-120.73 0 0 -1059.56 120.73 0 0 1059.56zm524.74 22.24c-107.49,0 -191.42,-39.98 -251.78,-119.67 -60.1,-79.69 -90.29,-178.71 -90.29,-296.79 0,-124.97 33.89,-224.78 101.67,-299.18 67.78,-74.66 151.97,-111.99 252.84,-111.99 108.29,0 193.28,39.18 255.76,117.82 62.22,78.36 93.46,176.32 93.46,294.14 0,122.05 -33.63,222.13 -100.87,299.44 -67.25,77.58 -154.09,116.23 -260.79,116.23zm9.53 -100.08c61.95,0 113.85,-25.68 155.94,-77.04 41.83,-51.37 62.75,-131.32 62.75,-239.87 0,-108.82 -21.97,-187.98 -65.92,-236.96 -43.95,-48.98 -95.58,-73.6 -154.36,-73.6 -60.63,0 -111.72,24.89 -153.82,74.39 -41.83,49.51 -62.75,128.15 -62.75,235.37 0,113.85 20.92,195.13 62.75,244.11 42.1,48.98 93.72,73.6 155.41,73.6zm1172.61 -827.63l0 96.9c-54.8,0 -91.87,6.36 -110.67,19.33 -18.79,12.97 -31.5,36.27 -37.59,70.16 50.04,57.98 75.19,120.99 75.19,189.57 0,71.48 -27.01,132.9 -81.28,184 -54.28,51.37 -127.35,77.05 -218.95,77.05 -20.39,0 -38.13,-1.59 -53.22,-4.77 -28.33,-5.56 -46.07,-8.47 -53.22,-8.47 -13.76,0 -30.44,6.88 -50.04,20.65 -19.59,13.5 -29.38,31.24 -29.38,52.69 0,30.97 14.03,51.09 42.36,60.36 28.33,9.27 95.04,15.09 199.89,17.74 88.96,2.65 154.62,8.74 196.98,18.27 42.62,9.53 78.37,30.71 107.75,63.8 29.39,32.83 43.95,73.08 43.95,120.73 0,149.59 -130.79,224.52 -392.63,224.52 -124.17,0 -214.72,-18.8 -271.64,-56.4 -56.92,-37.86 -85.52,-87.9 -85.52,-150.91 0,-76.25 39.72,-128.67 119.41,-157.26 -51.1,-33.63 -76.52,-75.72 -76.52,-126.56 0,-60.36 36.01,-106.69 108.02,-138.73 -67.77,-54.8 -101.66,-123.91 -101.66,-207.3 0,-77.58 28.86,-141.12 86.57,-190.89 57.45,-49.51 127.88,-74.4 210.75,-74.4 58.77,0 111.99,11.12 159.91,33.36 7.68,-51.1 25.68,-86.31 53.75,-105.64 27.8,-19.59 70.42,-29.39 127.61,-29.39 5.82,0 15.89,0.53 30.18,1.59zm-369.6 543.28c51.36,0 93.2,-15.88 125.5,-47.65 32.56,-32.04 48.71,-73.34 48.71,-123.91 0,-51.89 -16.94,-94.25 -50.57,-127.08 -33.62,-32.83 -74.39,-49.25 -122.31,-49.25 -45.54,0 -86.32,15.36 -121.79,46.34 -35.48,30.71 -53.22,74.66 -53.22,131.58 0,50.57 15.89,91.6 47.92,123.11 31.77,31.24 73.6,46.86 125.76,46.86zm-145.88 330.68c-56.66,24.89 -84.99,61.16 -84.99,108.29 0,40.24 23.3,71.22 69.9,93.46 46.6,21.97 105.9,33.09 177.92,33.09 66.71,0 127.87,-9.53 183.47,-28.59 55.6,-18.8 83.4,-51.1 83.4,-96.37 0,-24.36 -8.21,-44.48 -24.62,-60.1 -16.42,-15.62 -38.92,-25.42 -67.51,-29.65 -28.6,-3.98 -78.37,-7.15 -149.33,-9.27 -84.98,-2.12 -147.73,-5.56 -188.24,-10.86zm785.8 -1028.05l0 135.03 -131.85 0 0 -135.03 131.85 0zm-6.35 276.41l0 783.15 -120.73 0 0 -783.15 120.73 0zm761.7 551.22l112.79 23.3c-20.65,66.72 -61.16,121.79 -121,165.47 -60.1,43.69 -130.79,65.4 -212.07,65.4 -107.22,0 -193.8,-37.6 -260.25,-113.05 -66.19,-75.46 -99.29,-174.21 -99.29,-296.53 0,-124.7 34.42,-225.84 103.26,-302.62 68.84,-77.04 155.15,-115.43 259.2,-115.43 102.19,0 184.8,35.48 247.01,106.7 62.22,70.95 94.26,177.38 95.85,319.03l-570.29 0c0,118.35 24.89,198.3 74.66,239.87 50.04,41.3 102.73,61.95 158.33,61.95 100.07,0 170.76,-51.36 211.8,-154.09zm-7.94 -238.28c-1.06,-44.21 -8.21,-83.4 -21.71,-117.55 -13.5,-34.42 -36.54,-63.54 -68.57,-87.63 -32.3,-24.1 -70.96,-36.28 -115.97,-36.28 -60.89,0 -112.25,21.71 -154.61,65.4 -42.37,43.68 -65.93,102.2 -71.22,176.06l432.08 0zm210.49 268.73l115.96 -24.09c25.94,98.49 107.75,147.73 245.43,147.73 50.83,0 93.72,-11.38 128.93,-34.15 35.22,-23.04 52.96,-55.07 52.96,-96.64 0,-61.95 -44.75,-101.14 -133.97,-117.81l-165.47 -30.98c-64.6,-12.45 -116.23,-36.54 -154.62,-72.81 -38.39,-36.27 -57.45,-84.19 -57.45,-143.76 0,-65.66 26.21,-120.73 78.36,-164.95 52.43,-44.21 122.85,-66.45 211.54,-66.45 170.24,0 275.35,66.19 315.33,198.3l-109.61 24.1c-32.3,-81.55 -98.75,-122.32 -199.1,-122.32 -50.04,0 -91.07,10.06 -123.11,30.45 -32.03,20.38 -47.92,48.98 -47.92,85.51 0,57.98 40.77,94.26 122.05,109.08l152.5 28.86c160.18,28.86 240.14,106.43 240.14,232.46 0,72.01 -29.65,130.26 -89.23,174.74 -59.57,44.21 -138.99,66.45 -237.75,66.45 -185.86,0 -301.02,-74.66 -344.97,-223.72z"/>
    </g>
  </g>
</svg>