<?xml version="1.0" encoding="utf-8"?>
<svg viewBox="1146.717 6339.014 27535.509 7853.931" style="shape-rendering:geometricPrecision; text-rendering:geometricPrecision; image-rendering:optimizeQuality; fill-rule:evenodd; clip-rule:evenodd" xmlns="http://www.w3.org/2000/svg">
  <defs>
    <style type="text/css">
   
    .fil0 {fill:#7a0099}
    .fil1 {fill:#7a0099;fill-rule:nonzero}
   
  </style>
  </defs>
  <g id="Layer_x0020_1">
    <path class="fil0" d="M4957.35 6339.01l-2600.39 1235.21 2600.39 1235.2 2600.39 -1235.2 -2600.39 -1235.21zm-3801.74 5276.69l693.29 -439.39 3108.45 1476.55 2411.69 -1145.57 0 764.83 1390.38 -2193.96 -1386.58 -878.74 1386.58 -658.64 0 -768.69 -809.13 384.34 -2992.94 1421.68 -2992.94 -1421.68 -809.13 -384.34 0 768.69 3802.07 1806.01 2411.69 -1145.56 -0.01 768.69 -2411.68 1145.57 -3105.12 -1474.97 -696.95 -1099.73 -0.01 1537.55 0.01 1537.56 0 768.33 3802.07 1806.02 3802.07 -1806.02 0 -768.69 -809.13 384.34 -2992.94 1421.68 -2992.94 -1421.68 -808.8 -384.18z"/>
    <path class="fil1" d="M9889.42 10352.9l0 -2871.03 341.31 0 0 2871.03 -341.31 0zm1003.18 0l0 -1794.89 301.16 0 0 277.06c76.96,-115.11 169.99,-200.77 278.4,-256.99 108.42,-56.22 234.24,-84.32 376.11,-84.32 212.15,0 377.46,56.21 495.91,168.65 119.12,112.43 178.69,269.03 178.69,469.13l0 1221.36 -313.21 0 0 -1056.73c0,-182.03 -38.14,-316.55 -114.44,-404.89 -76.96,-88.33 -194.74,-132.5 -354.02,-132.5 -91.69,0 -175.34,16.73 -250.3,50.19 -74.95,33.46 -137.19,80.31 -187.39,141.88 -37.47,46.84 -64.91,101.05 -80.97,160.61 -16.73,60.23 -24.76,164.64 -24.76,313.88l0 927.56 -305.18 0zm3314.74 -1593.46c186.72,79.64 327.92,185.38 422.29,317.23 95.03,131.83 142.55,288.43 142.55,468.46 0,263.68 -84.33,476.5 -252.31,637.79 -167.98,161.28 -390.16,242.26 -667.9,242.26 -226.2,0 -415.6,-57.56 -568.85,-173.33 -152.59,-115.78 -255.65,-279.75 -309.86,-492.57l309.86 -153.25c42.16,174 111.09,305.84 207.46,395.52 95.71,89.68 216.17,134.52 361.39,134.52 171.33,0 309.86,-49.53 416.27,-147.91 105.74,-99.04 158.61,-227.53 158.61,-385.48 0,-128.49 -36.81,-239.58 -111.09,-334.61 -73.62,-95.04 -184.71,-174.68 -333.96,-240.26l-349.34 -149.24c-190.73,-79.64 -333.28,-182.03 -426.3,-307.85 -93.7,-125.15 -140.54,-275.73 -140.54,-451.06 0,-204.12 75.62,-372.77 227.54,-505.95 151.91,-133.18 345.32,-200.1 580.9,-200.1 171.99,0 321.9,36.81 447.72,109.75 126.48,73.62 224.86,181.37 295.13,324.59l-282.42 180.02c-63.58,-111.09 -135.85,-193.41 -215.49,-247.62 -79.64,-54.21 -169.99,-81.64 -270.37,-81.64 -128.5,0 -233.57,39.48 -315.22,117.78 -81.64,78.3 -122.47,178.01 -122.47,299.82 0,101.72 31.46,190.06 94.37,264.35 62.23,74.95 159.94,140.54 291.78,198.09l410.25 180.69zm1035.31 51.54l-329.27 0 0 -252.97 329.27 0 0 -722.78 313.2 0 0 722.78 329.27 0 0 252.97 -329.27 0 0 1541.92 -313.2 0 0 -1541.92zm2364.42 662.54c0,-202.78 -55.55,-366.07 -165.98,-489.21 -110.42,-123.81 -254.3,-185.38 -432.32,-185.38 -184.04,0 -327.93,56.88 -430.99,170.66 -103.73,113.77 -155.26,272.38 -155.26,476.49 0,216.84 52.2,384.14 155.93,501.26 103.73,117.79 251.63,176.68 442.36,176.68 182.7,0 326.59,-56.88 430.33,-171.32 103.72,-114.44 155.93,-274.39 155.93,-479.18zm297.14 -915.51l0 1794.89 -297.14 0 0 -325.25c-71.61,130.5 -163.97,230.22 -275.73,298.48 -111.76,68.93 -236.91,103.06 -375.44,103.06 -256.99,0 -465.12,-88.33 -622.39,-265.68 -157.27,-177.35 -236.25,-411.59 -236.25,-703.37 0,-295.14 76.3,-530.04 229.56,-704.71 152.58,-174.67 357.37,-261.67 613.68,-261.67 149.92,0 280.42,33.46 390.84,101.05 110.42,67.6 200.1,168.65 267.69,301.83l0 -338.63 305.18 0zm1990.98 1369.26l0 357.37c-80.98,48.18 -172,84.32 -273.72,108.41 -101.05,24.1 -210.81,36.14 -328.59,36.14 -277.07,0 -499.93,-87.67 -669.24,-263.68 -169.32,-176.01 -254.31,-406.89 -254.31,-693.33 0,-287.77 87.67,-522.67 263.01,-704.7 175.34,-182.7 399.53,-273.72 672.58,-273.72 99.05,0 196.09,10.71 291.12,31.45 95.03,20.75 184.04,51.53 267.69,92.36l0 329.93c-78.3,-50.86 -159.27,-89.68 -242.93,-116.45 -83.65,-26.77 -168.65,-40.15 -254.98,-40.15 -201.44,0 -363.4,62.91 -484.53,189.39 -121.8,125.82 -182.7,293.8 -182.7,502.6 0,184.71 60.9,338.63 183.37,463.11 122.47,123.81 275.73,186.05 459.77,186.05 93.02,0 184.04,-16.73 273.05,-49.52 89.01,-32.79 182.03,-84.32 280.41,-155.26zm430.32 425.63l0 -3039.68 309.18 0 0 2058.58 863.32 -813.79 409.57 0 -894.77 821.82 975.08 973.07 -428.98 0 -924.22 -947.64 0 947.64 -309.18 0zm3409.77 -244.94c156.6,0 306.5,-29.45 447.71,-89.01 141.88,-59.56 269.71,-146.56 383.48,-260.33 112.43,-112.44 198.09,-239.59 256.99,-382.14 58.89,-142.55 88.33,-293.79 88.33,-453.07 0,-160.62 -29.44,-313.87 -89.01,-459.1 -59.56,-145.22 -145.22,-273.05 -256.31,-384.14 -112.43,-112.43 -239.59,-198.1 -381.47,-256.99 -141.21,-58.89 -291.78,-88.34 -449.72,-88.34 -159.29,0 -310.53,29.45 -453.08,88.34 -142.55,58.89 -268.36,144.56 -378.12,256.99 -112.43,113.77 -198.09,242.26 -256.99,386.15 -58.89,143.88 -88.34,296.47 -88.34,457.09 0,159.28 28.78,309.86 87,451.06 58.23,141.21 144.56,269.04 258.33,384.15 115.11,115.11 242.93,202.11 382.8,261 140.54,58.89 290.45,88.34 448.4,88.34zm1533.89 -1184.55c0,205.45 -38.15,398.86 -113.77,580.23 -75.63,182.03 -186.05,343.32 -331.28,484.52 -145.22,141.22 -312.53,249.63 -501.25,326.59 -189.4,76.3 -384.82,114.44 -587.59,114.44 -202.78,0 -397.53,-38.14 -585.59,-114.44 -187.39,-76.96 -354.02,-185.37 -499.25,-326.59 -146.56,-142.54 -257.65,-304.5 -334.62,-486.53 -76.29,-181.36 -114.44,-374.11 -114.44,-578.22 0,-205.46 38.15,-398.87 114.44,-581.57 76.97,-182.03 188.06,-344.66 334.62,-487.2 143.89,-139.87 309.86,-247.62 498.58,-323.25 188.06,-75.62 383.48,-113.77 586.26,-113.77 204.11,0 400.2,38.15 589.59,113.77 188.73,75.63 355.37,183.38 499.25,323.25 145.23,141.2 255.65,303.16 331.28,485.19 75.62,182.71 113.77,376.78 113.77,583.58zm815.8 -365.4l0 883.39c0,257.65 38.15,437.68 114.44,540.74 76.96,102.39 205.45,153.93 387.49,153.93 181.36,0 309.85,-50.86 385.48,-151.92 74.95,-101.72 112.43,-282.42 112.43,-542.75l0 -883.39 313.2 0 0 1048.02c0,270.37 -68.93,475.16 -207.46,614.36 -138.53,139.2 -342.65,208.8 -611.68,208.8 -266.36,0 -469.14,-69.6 -607.67,-209.47 -138.54,-139.87 -207.47,-344.66 -207.47,-613.69l0 -1048.02 321.24 0zm1954.84 252.97l-329.26 0 0 -252.97 329.26 0 0 -722.78 313.21 0 0 722.78 329.26 0 0 252.97 -329.26 0 0 1541.92 -313.21 0 0 -1541.92z"/>
    <path class="fil1" d="M10037.49 12358.67l-148.07 0 0 -1175.73 148.07 0 0 1175.73zm646.91 0l-148.07 0 0 -1047.05 -336.68 0 0 -128.68 821.43 0 0 128.68 -336.68 0 0 1047.05zm811.44 -309.95l132.21 -30.25c53.47,159.82 168.92,239.73 346.96,239.73 92.83,0 163.05,-19.69 210.06,-59.35 47,-39.66 70.5,-92.54 70.5,-158.94 0,-50.24 -17.92,-90.78 -53.76,-121.33 -35.84,-30.56 -76.97,-51.71 -123.98,-63.46l-234.73 -57.58c-61.11,-15.57 -111.05,-34.37 -149.83,-56.41 -38.78,-22.33 -71.69,-56.4 -98.72,-102.24 -27.02,-46.12 -40.54,-98.71 -40.54,-158.05 0,-98.13 37.02,-176.57 111.05,-235.03 73.74,-58.47 168.63,-87.55 284.68,-87.55 213.29,0 353.43,96.65 420.41,289.97l-133.97 39.66c-15.57,-69.04 -51.7,-121.33 -108.99,-156.59 -57,-35.55 -117.81,-53.17 -182.44,-53.17 -64.05,0 -121.04,17.03 -171.28,51.11 -49.94,34.08 -74.91,82.26 -74.91,144.55 0,87.25 63.75,146.01 190.96,176.56l219.16 52c200.07,48.47 300.25,156.88 300.25,325.52 0,101.65 -37.61,186.55 -113.11,254.12 -75.21,67.57 -181.56,101.36 -318.46,101.36 -242.96,0 -403.66,-111.64 -481.52,-334.63zm1432.51 334.63c-119.28,0 -212.41,-44.36 -279.4,-132.79 -66.69,-88.43 -100.18,-198.31 -100.18,-329.34 0,-138.66 37.61,-249.42 112.82,-331.98 75.21,-82.85 168.63,-124.27 280.56,-124.27 120.16,0 214.46,43.48 283.8,130.73 69.04,86.97 103.71,195.67 103.71,326.4 0,135.44 -37.31,246.49 -111.94,332.28 -74.62,86.08 -170.98,128.97 -289.37,128.97zm10.57 -111.05c68.75,0 126.33,-28.5 173.04,-85.5 46.42,-56.99 69.63,-145.71 69.63,-266.16 0,-120.75 -24.39,-208.59 -73.15,-262.95 -48.77,-54.34 -106.06,-81.67 -171.28,-81.67 -67.28,0 -123.98,27.62 -170.69,82.56 -46.42,54.94 -69.63,142.19 -69.63,261.17 0,126.33 23.21,216.52 69.63,270.87 46.71,54.36 104,81.68 172.45,81.68zm728.29 86.37l-133.96 0 0 -1175.73 133.96 0 0 1175.73zm955.4 0l-121.63 0 0 -165.7c-61.99,126.92 -154.24,190.38 -277.04,190.38 -89.02,0 -158.94,-29.38 -209.76,-87.85 -50.83,-58.75 -76.09,-141.9 -76.09,-250.01l0 -555.84 133.96 0 0 555.84c0,86.38 17.92,145.72 54.06,178.04 36.13,32.61 75.8,48.77 119.28,48.77 43.77,0 83.43,-12.34 118.98,-37.32 35.54,-24.67 65.22,-59.93 88.72,-105.76 23.8,-45.83 35.55,-95.77 35.55,-150.12l0 -489.45 133.97 0 0 869.02zm665.42 -91.66l0 107.52c-47.89,5.88 -89.31,8.82 -124.27,8.82 -168.63,0 -252.95,-87.85 -252.95,-263.82l0 -524.12 -153.36 0 0 -105.76 153.36 0 5.29 -218.87 128.68 -12.05 0 230.92 193.9 0 0 105.76 -193.9 0 0 546.15c0,89.6 46.12,134.26 138.66,134.26 30.85,0 65.81,-2.94 104.59,-8.81zm288.5 -1084.07l0 149.83 -146.3 0 0 -149.83 146.3 0zm-7.05 306.71l0 869.02 -133.97 0 0 -869.02 133.97 0zm581.4 893.7c-119.28,0 -212.4,-44.36 -279.39,-132.79 -66.69,-88.43 -100.18,-198.31 -100.18,-329.34 0,-138.66 37.6,-249.42 112.81,-331.98 75.21,-82.85 168.64,-124.27 280.57,-124.27 120.16,0 214.46,43.48 283.8,130.73 69.04,86.97 103.71,195.67 103.71,326.4 0,135.44 -37.32,246.49 -111.94,332.28 -74.62,86.08 -170.98,128.97 -289.38,128.97zm10.58 -111.05c68.75,0 126.33,-28.5 173.04,-85.5 46.41,-56.99 69.63,-145.71 69.63,-266.16 0,-120.75 -24.39,-208.59 -73.16,-262.95 -48.77,-54.34 -106.05,-81.67 -171.27,-81.67 -67.28,0 -123.98,27.62 -170.69,82.56 -46.42,54.94 -69.63,142.19 -69.63,261.17 0,126.33 23.21,216.52 69.63,270.87 46.71,54.36 104,81.68 172.45,81.68zm1278.26 86.37l-126.91 0 0 -558.78c0,-80.21 -17.64,-136.91 -52.59,-169.52 -34.96,-32.61 -77.27,-49.06 -127.21,-49.06 -68.75,0 -126.33,27.62 -173.04,82.85 -46.71,54.94 -70.22,127.8 -70.22,217.99l0 476.52 -133.96 0 0 -869.02 125.15 0 0 160.41c70.51,-123.39 161.87,-185.09 274.1,-185.09 64.93,0 120.16,16.75 165.7,50.24 45.53,33.79 76.68,71.39 93.71,113.4 16.75,41.72 25.27,117.51 25.27,227.1l0 502.96zm153.35 -223.57l128.68 -26.74c28.79,109.29 119.57,163.94 272.34,163.94 56.41,0 104.01,-12.64 143.08,-37.9 39.07,-25.56 58.76,-61.11 58.76,-107.23 0,-68.75 -49.66,-112.23 -148.66,-130.74l-183.62 -34.37c-71.68,-13.81 -128.97,-40.54 -171.57,-80.79 -42.6,-40.25 -63.75,-93.43 -63.75,-159.53 0,-72.86 29.08,-133.97 86.96,-183.03 58.17,-49.06 136.32,-73.74 234.74,-73.74 188.9,0 305.53,73.45 349.89,220.05l-121.62 26.73c-35.84,-90.48 -109.59,-135.73 -220.93,-135.73 -55.53,0 -101.06,11.17 -136.61,33.79 -35.55,22.62 -53.18,54.35 -53.18,94.89 0,64.34 45.25,104.59 135.44,121.04l169.22 32.02c177.74,32.03 266.47,118.11 266.47,257.95 0,79.91 -32.91,144.54 -99.01,193.9 -66.11,49.06 -154.24,73.74 -263.82,73.74 -206.24,0 -334.04,-82.85 -382.81,-248.25z"/>
    <path class="fil0" d="M28064.09 11143.44c341.41,0 618.19,276.77 618.19,618.19 0,341.42 -276.78,618.19 -618.19,618.19 -286.28,0 -527.07,-194.62 -597.39,-458.75l-8797.98 0 0 -318.88 8797.98 0c70.32,-264.13 311.11,-458.75 597.39,-458.75zm0 356.17c144.71,0 262.02,117.31 262.02,262.02 0,144.71 -117.31,262.02 -262.02,262.02 -144.72,0 -262.03,-117.31 -262.03,-262.02 0,-144.71 117.31,-262.02 262.03,-262.02z"/>
  </g>
</svg>